<svg id="レイヤー_1" data-name="レイヤー 1" xmlns="http://www.w3.org/2000/svg" viewBox="0 0 107.06 102.69"><defs><style>.cls-1{fill:gray;}.cls-2{fill:none;stroke:#f68e05;stroke-miterlimit:10;stroke-width:5px;}</style></defs><title>nekohige_logo</title><path class="cls-1" d="M15.46,19.88c-1.11,1.25-1.68,1.82-2.69,2.83,1.49,4.7,2.11,10.27,2.11,18.77,0,12.14-1.53,14.5-9.41,14.5-.62,0-1.34,0-2.64-.15a27.25,27.25,0,0,0-1.15-7.1,14.13,14.13,0,0,0,3.65.62A2.2,2.2,0,0,0,7,48.82c.67-.76,1-3.16,1-7.58v-1a27.88,27.88,0,0,1-4.51,4.61,34.3,34.3,0,0,0-3.32-7.2A26.67,26.67,0,0,0,7.49,31.3a35.83,35.83,0,0,0-.58-3.65,36,36,0,0,1-4,2.64A28.33,28.33,0,0,0,0,23.53a27.43,27.43,0,0,0,4.61-2.88A18.53,18.53,0,0,0,1.06,15l6-3.55,1.68,2.69c.28.48.57,1,1,1.82a22.73,22.73,0,0,0,3.6-4.75L18.58,16a2.6,2.6,0,0,1-.34.38c.91,0,1.3,0,2.16,0h.43V14.64a28.74,28.74,0,0,0-.14-3.21h7.39a27.61,27.61,0,0,0-.14,3.21v1.83h4.8V14.64a28.43,28.43,0,0,0-.15-3.21H40a27.35,27.35,0,0,0-.15,3.21v1.83h.48a38.71,38.71,0,0,0,5.43-.24v7.06a51.21,51.21,0,0,0-5.47-.24h-.44V24A16.26,16.26,0,0,0,40,26.45h-7.4a18.35,18.35,0,0,0,.15-2.54v-.86h-4.8V24a17.91,17.91,0,0,0,.14,2.49H20.69A16.83,16.83,0,0,0,20.83,24v-.91a45.59,45.59,0,0,0-5.37.24Zm1,12.29c0-2,0-3.41-.15-5,1.11.1,2.35.15,4.13.15h19a47.21,47.21,0,0,0,5-.2,46.61,46.61,0,0,0-.19,4.9V50.74c0,2.31.1,4.18.24,5.67H37.4V54.49H23.33v1.92h-7.1c.14-1.73.24-3.75.24-5.76Zm6.81,1.48v3.89h3.65V33.65Zm0,9.94v4.23h3.65V43.59Zm10.23-9.94v3.89h3.84V33.65Zm0,9.94v4.23h3.84V43.59Z"/><path class="cls-1" d="M86.16,48.87a18.8,18.8,0,0,1-3.74.34c-1.3,0-1.68-.24-1.68-1V46.09A73.08,73.08,0,0,0,91.3,43c.77-.24,1.1-.39,2.16-.68l-3.26-5.9a44.12,44.12,0,0,1-9.46,3.46A18.28,18.28,0,0,1,80.93,37H73.68a31.45,31.45,0,0,1,.24,3.7V51.42c0,3.6,1.87,4.56,8.93,4.56a49,49,0,0,0,5.81-.29,5.24,5.24,0,0,0,3.17-1.25c1.1-1.1,1.44-2.35,2-7.44A32,32,0,0,1,87,44.79C87,48.34,86.93,48.58,86.16,48.87Z"/><path class="cls-1" d="M70.8,31.11c1.06,0,1.56.05,2,.09,0,0,0,0,.06,0s.07,0,.1,0a.05.05,0,0,1,0,0,.19.19,0,0,1,.12,0,.26.26,0,0,1,.12,0s.07,0,.1,0,.06,0,.11,0h0a.32.32,0,0,1,0-.09h0V26a27.3,27.3,0,0,1-3.84.19h-10v-1.1h9a27.41,27.41,0,0,1,2.79.14v-3.4a13.24,13.24,0,0,1-2.79.14h-9v-1.1h9a25.42,25.42,0,0,1,2.79.14V17.72a22.21,22.21,0,0,1-2.79.09h-9v-1H68c2.06,0,3.41.05,4.7.15l0,0h.14V15.2l0,0h0V11.86a49.84,49.84,0,0,1-5.67.24H57.94a50.36,50.36,0,0,1-5.33-.19,45.12,45.12,0,0,1,.19,4.66v9c-1.68-.05-2.54-.05-2.59-.05-.53-.05-.87-.05-1.39-.14v5.85a33.23,33.23,0,0,1,4.36-.14h.68c-.48,1-.72,1.39-1.11,2.06H51.5a13.51,13.51,0,0,1-2.11-.09l.77,5.76A16,16,0,0,1,53,38.45c5.71-.38,10.75-.86,15.22-1.39.29.53.43.91.81,1.73l5.33-2.45A37.35,37.35,0,0,0,70.8,31.11ZM59.71,33c.34-.62.53-.91,1-1.87h3.79a17.24,17.24,0,0,1,1.11,1.49C62.83,32.84,62.83,32.84,59.71,33Z"/><path class="cls-1" d="M66.82,40.42c.09-1.15.09-1.29.19-2h-7.2a21.06,21.06,0,0,1,.24,3.65v6.82c-.91,0-.91,0-2,.14V44.74a39.4,39.4,0,0,1,.19-4.65H51.22a32.26,32.26,0,0,1,.28,4.7v4.66c-1.24,0-1.58,0-2.2,0h-.82l1.1,7,2.4-.29c.58-.09.58-.09,2.07-.24,5.09-.48,11.28-1.39,18.48-2.73v-6c-3.79.62-3.84.67-5.71.91V45.61H68.5a28.1,28.1,0,0,1,4,.14V40.18a20.87,20.87,0,0,1-4,.24Z"/><path class="cls-1" d="M10.13,67.74A57.54,57.54,0,0,0,3.26,68V60.26a63.37,63.37,0,0,0,7,.28H36.34a54.84,54.84,0,0,0,6.86-.28V68a57.87,57.87,0,0,0-6.81-.29h-9.6V91.65H38.12a65,65,0,0,0,7.34-.34v7.92a65.62,65.62,0,0,0-7.39-.33H8.26a70.73,70.73,0,0,0-7.35.33V91.31a66.79,66.79,0,0,0,7.49.34H18.91V67.74Z"/><path class="cls-1" d="M74.5,86.23A15.07,15.07,0,0,1,74.26,88h11.9A31.17,31.17,0,0,0,90,87.86a17.19,17.19,0,0,0-.24,2.64c-.33,5.57-.86,8-2,9.31-1.39,1.58-3.36,2.11-8.21,2.11-.72,0-.87,0-4-.09A17.29,17.29,0,0,0,74,95.54a41.55,41.55,0,0,0,5.47.33c2.3,0,2.45-.14,2.69-2.78H72.63A18,18,0,0,1,69,98a22.2,22.2,0,0,1-7.49,4.7,22.18,22.18,0,0,0-4.27-6c6.33-2.25,9.4-5.47,9.93-10.41H59.81c-1.06,7.58-2.79,12-6.19,16.13a28.78,28.78,0,0,0-5.52-5.77,21.89,21.89,0,0,0,4.27-10.27,104.78,104.78,0,0,0,.91-15.26A31.31,31.31,0,0,0,53,66.21c1.44.09,3.12.14,5.33.14H86.74c2,0,3.26,0,4.22-.14-.09.91-.14,2-.14,3.55v4.9c0,1.72.05,3.12.14,4-1.29-.09-2.44-.14-4.22-.14H78.53v2.06H88.61a30.91,30.91,0,0,0,4.75-.24v6.15a31.19,31.19,0,0,0-4.75-.24ZM93.51,65c-1.83-.15-3.75-.24-6.05-.24H56.26a54.89,54.89,0,0,0-6,.24V58.34a57.69,57.69,0,0,0,6.43.28H87.08a52.22,52.22,0,0,0,6.43-.28ZM71.38,78.5H60.43l-.09,2.06h11Zm12.33-4.9V71.78H60.48V73.6Z"/><path class="cls-2" d="M75.42,15.7a82.08,82.08,0,0,1,11.29-3.22"/><path class="cls-2" d="M76.29,26.54c3.36-2.52,6.5-5.32,9.92-7.75"/><path class="cls-2" d="M81.82,34.63c1.76-2.11,4.41-3.46,5.75-5.86.48-.87.77-1.83,1.16-2.74a5.29,5.29,0,0,1,1.73-2.37"/><path class="cls-2" d="M90.46,9.79C93.82,7.27,97,4.47,100.38,2"/><path class="cls-2" d="M94.93,22.22a42.71,42.71,0,0,1,11.26,2.51"/><path class="cls-2" d="M92.41,16c3.44-.88,10.29-2.42,13.78-3.08"/></svg>